<?xml version="1.0" encoding="UTF-8"?>
<svg id="Camada_2" data-name="Camada 2" xmlns="http://www.w3.org/2000/svg" viewBox="0 0 595.23 512.89">
  <defs>
    <style>
      .cls-1 {
        stroke: #000;
        stroke-miterlimit: 10;
        stroke-width: 7px;
      }
    </style>
  </defs>
  <g id="Camada_2-2" data-name="Camada 2">
    <path class="cls-1" d="M535.39,505.34c.46,2.33,2.48,4,4.86,4.05,3.02.07,7.14-.35,9.42-2.78,3.9-4.14,3.85-26.73,4.06-27.13.45-.9,5.67-10.19,6.17-11.84.85-2.8-.92-27.66-1.19-30.67-.02-.17.01-.34.09-.49,1.12-2.25,9.72-20.48-2.73-25.01-.62-.23-1.07-.76-1.13-1.42l-3.28-37.72c-.02-.27.01-.52.12-.77.84-1.98,4.76-11.93,2.42-20.36-.08-.3-.06-.63.09-.91,1.37-2.62,8.43-16.59,7.36-24.24-.22-1.59-1.77-2.69-3.36-2.48-3.47.46-9.2.62-7.63-4.03,2.23-6.64,1.97-20.64,39.94-9.38.58.17,1.17-.29,1.12-.89l-2.3-26.8c-.16-1.85-1.54-3.36-3.37-3.66-4.41-.73-12.2-1.85-14.43-1.17-3.09.95,1-9.91-17.08-13.61-.92-.19-1.55-1.07-1.38-1.99.69-3.72,5.38-13.19,32.83-25.95.46-.21.8-.63.9-1.12,1.2-5.54,8.13-38.64,3-38.19-5.6.49-43.29-1.94-49.92-20.9-.01-.03-.03-.07-.05-.1-.94-1.35-23.16-33.15-40.94-41.07-.43-.19-.76-.56-.9-1.01l-7.51-25.27c-.18-.6,0-1.25.46-1.66,1.59-1.42,4.53-5.03-2.63-7.7-.35-.13-.64-.41-.75-.77-1.14-3.82-7.41-25.85-3.81-35.51.05-.14.08-.29.09-.44.05-1.3.16-7.69-2.15-9.25-.37-.25-.58-.67-.63-1.11l-3.81-35.44s1.9-6.18-44.27-3.05c-.95.06-1.76-.68-1.76-1.63v-6.72c0-.95-.8-1.71-1.75-1.63-4.14.32-14.51,1.31-19.13,3.37-.48.21-.83.63-.92,1.14-.5,2.71-2.47,11.97-6.2,13.63-4.24,1.89-26.28,17-32.77,19.52-.4.15-.71.48-.88.87l-6.32,14.9c-.14.33-.38.6-.7.78-3.89,2.22-30.24,17.48-33.62,26.28-3.65,9.5,3.41,80.38-46.52,25.09,0,0-6.17-6.41-15-1.89-.23.12-.43.29-.58.5l-6.97,9.36c-.37.49-.97.74-1.58.64-6.16-1.05-39.44-7.8-50.64-31.95-.96-2.06-2.26-3.94-3.9-5.5l-.99-.94c-.66-.63-1.71-.59-2.33.08l-3.2,3.48c-.67.73-1.84.7-2.47-.07L134.04,8.23c-.97-1.19-2.59-1.68-4.02-1.15-3.49,1.3-8.72,5.77-4.56,21.1.5,1.85-1.3,3.51-3.1,2.84-6.21-2.3-16.48-6.78-18.43-7.24-3.14-.74-3.92,2.97-3.13,4.26.23.37.1.85.37,1.18l32.55,39.44c.26.31.39.7.37,1.11-.2,3.9-.92,25.17,6.37,32.02,7.03,6.61-3.84,15.45-6.66,17.56-.4.3-.62.76-.58,1.25.43,5.26,2.44,35.21-6.89,37.21-7.22,1.55-10.07-3.82-11.13-7.11-.39-1.22-1.74-1.84-2.9-1.29l-16.06,7.52c-.51.24-1.11.2-1.58-.11-3-1.98-14.27-8.6-16.8,1.72-2.86,11.69,42.62,17.3,44.51,17.53.04,0,.08.01.12.02,1.12.32,16.74,5.14,3.35,19.71-13.88,15.1-20.22,22.65-19.49,27.04.7,4.2,9.67,4.38,6.35,16.16-.25.89.29,1.81,1.19,2.03l4.13,1c.76.18,1.3.88,1.25,1.66-.18,2.81-1.6,10.01-10.11,22.21-.24.34-.34.76-.27,1.17.47,2.74,2.33,13.66,2.33,16.42,0,3.17,4.87,7.79-1.71,11.69-6.46,3.83-35.48,9.77-66.06-26.96-1.11-1.34-2.71-2.17-4.45-2.28-9.69-.61-40.91-.39-34.72,28.5,6.13,28.59,26.8,62.99,33.33,73.37,1.25,1.99,3.33,3.29,5.67,3.53,12.11,1.27,49.97,1.3,73.33.42.25,0,.36-.01,1.03-.01,11.38.01,23.98,6.09,29.14,11.76,1.14,1.25,1.72,2.9,1.77,4.59l1.09,39.55c.04,1.39-.6,2.72-1.71,3.55l-4.46,3.35c-1.49,1.11-1.97,3.12-1.15,4.79,3.41,6.97,12.49,24.09,19.09,23.9s7.32-9.61,7.34-13.47c0-1.08.39-2.13,1.09-2.96l15.56-18.37c.55-.65.98-1.4,1.25-2.22,2.22-6.58,13.36-37.92,24.69-39.23,11.76-1.36,17.64-15.95,18.42-18.02.06-.17.16-.31.29-.44,2.82-2.6,33.91-30.73,38.28-7.48.16.84,1.03,1.35,1.85,1.08,4.91-1.6,19.77-6.92,26.06-14.49.62-.75,1.52-1.2,2.48-1.32,3.68-.47,12.67-1.33,18.21.55,1.07.36,2.21.36,3.25-.09,4.45-1.91,16.72-6.77,24.39-5.59,9.27,1.43,31.07-21.74,32.11-22.85.03-.03.05-.06.08-.09l11.59-14.36c1-1.24,3.01-.47,2.91,1.13-.53,8.28-2.1,24.52-6.43,31.39-.85,1.35-.48,3.14.77,4.14l2.29,1.82c.98.78,1.7,1.84,2.07,3.04,1.98,6.49,8.8,28.12,12.11,30.32,3.18,2.12,38.76,24.44,51.78,32.6,2.95,1.85,4.84,4.99,5.07,8.47.5,7.38,1.5,19.72,2.75,20.97,1.1,1.1,4.54-1.37,7.02-3.43,1.42-1.18,3.56-.72,4.39.93,5.14,10.23,20.7,40.53,25.86,42.65,4.6,1.9,12.35.38,16.05-.53,3.25-.8,6.65,1.1,7.47,4.34.3,1.2.37,2.69.06,4.54-.14.83.36,1.63,1.18,1.84,3.24.82,10.64,3.36,10.93,9.54.17,3.71.46,6.05.78,7.67Z"/>
  </g>
</svg>